<svg xmlns="http://www.w3.org/2000/svg" viewBox="0 0 500 375.98"><defs><style>.cls-1{fill:#5e6bb2;}.cls-2{fill:#71b2e2;}</style></defs><g id="Layer_2" data-name="Layer 2"><g id="Layer_3" data-name="Layer 3"><path class="cls-1" d="M363.18,112.83v-9.06a6.52,6.52,0,0,0-5.55-6.44L349,96A6.42,6.42,0,0,1,343.6,91a89.24,89.24,0,0,0-3.19-12,6.45,6.45,0,0,1,2.15-7.07l6.8-5.41a6.52,6.52,0,0,0,1.58-8.35l-4.53-7.85a6.52,6.52,0,0,0-8-2.81l-8.1,3.19a6.43,6.43,0,0,1-7.2-1.68,91.37,91.37,0,0,0-8.8-8.8A6.42,6.42,0,0,1,312.6,33l3.19-8.1a6.51,6.51,0,0,0-2.81-8l-7.85-4.53a6.52,6.52,0,0,0-8.35,1.58l-5.41,6.8a6.44,6.44,0,0,1-7.07,2.15,90.75,90.75,0,0,0-12-3.19,6.42,6.42,0,0,1-5.07-5.4l-1.3-8.63A6.51,6.51,0,0,0,259.47.06h-9.06A6.5,6.5,0,0,0,244,5.61l-1.3,8.65a6.48,6.48,0,0,1-5.12,5.4A88.54,88.54,0,0,0,228.18,22,3.74,3.74,0,0,0,226,27.34l23.13,43.34a8,8,0,0,0,6.8,4.13,32.93,32.93,0,0,1,15.31,4.42,33.52,33.52,0,0,1-13.12,62.41,7.88,7.88,0,0,0-6.14,4l-24,44.15a3.74,3.74,0,0,0,2.31,5.38c2.42.69,4.89,1.27,7.39,1.76a6.42,6.42,0,0,1,5.07,5.4L244,211a6.52,6.52,0,0,0,6.45,5.55h9.06a6.51,6.51,0,0,0,6.44-5.55l1.3-8.63a6.42,6.42,0,0,1,5.07-5.4,89.21,89.21,0,0,0,12-3.18,6.44,6.44,0,0,1,7.07,2.14l5.41,6.8a6.51,6.51,0,0,0,8.35,1.59l7.85-4.54a6.5,6.5,0,0,0,2.81-8l-3.19-8.11a6.43,6.43,0,0,1,1.68-7.2,91.37,91.37,0,0,0,8.8-8.8,6.44,6.44,0,0,1,7.2-1.68l8.1,3.19a6.52,6.52,0,0,0,8-2.8l4.53-7.85a6.53,6.53,0,0,0-1.58-8.36l-6.8-5.41a6.43,6.43,0,0,1-2.15-7.06,89.38,89.38,0,0,0,3.19-12,6.42,6.42,0,0,1,5.4-5.07l8.63-1.29A6.52,6.52,0,0,0,363.18,112.83Z"/><path class="cls-1" d="M238.46,139.65l-43,74.38a4.71,4.71,0,0,1-8.17,0l-21.47-37.18a4.72,4.72,0,0,1,1.73-6.45L232,133.2A4.72,4.72,0,0,1,238.46,139.65Z"/><path class="cls-2" d="M189.43,76,234.57,102a7.12,7.12,0,0,1,0,12.33l-87,50.25a7.12,7.12,0,0,1-9.72-9.72l24.37-42.23a9,9,0,0,0,0-8.94l-24.37-42.2a7.12,7.12,0,0,1,9.72-9.73Z"/><path class="cls-1" d="M238.46,76.74A4.72,4.72,0,0,1,232,83.19L192,60.1,167.6,46a4.71,4.71,0,0,1-1.73-6.44L187.34,2.36a4.71,4.71,0,0,1,8.17,0l29.17,50.52Z"/><path d="M36.13,313.71,21.71,338.28H.29l25.84-39.71L0,259.16H22.56L38.7,283.58l14.57-24.42H74.69l-26,39.41L75,338.28H52.41Z"/><path d="M128.53,339.28c-28.13,0-51.12-21.14-51.12-51.13s23-51,51.12-51c28.43,0,51,21.14,51,51S156.81,339.28,128.53,339.28Zm0-17.86c18,0,30.42-13,30.42-33.27s-12.42-33-30.42-33S98,267.87,98,288.15,110.4,321.42,128.53,321.42Z"/><path d="M236.93,257.87c20.28,0,36.13,15.85,36.13,40.56s-15.85,41.13-36.13,41.13A32.3,32.3,0,0,1,210.79,327v49h-20V259.16h20v11.42C215.51,263.87,224.65,257.87,236.93,257.87Zm-5.28,17.57c-10.72,0-20.86,8.28-20.86,23.28S220.93,322,231.65,322s21-8.57,21-23.57S242.5,275.44,231.65,275.44Z"/><path d="M318.62,339.56c-23,0-39.7-16-39.7-40.84,0-25,16.28-40.85,39.7-40.85,22.85,0,39,15.57,39,39.13a46.66,46.66,0,0,1-.57,7.72H299.2c1,11.71,9,18.28,19,18.28,8.57,0,13.28-4.29,15.86-9.57h21.56C351.33,328,338.19,339.56,318.62,339.56Zm-19.28-48.27H336.9c-.28-10.43-8.57-17-18.85-17C308.48,274.3,300.91,280.44,299.34,291.29Z"/><path d="M388.6,338.28h-20V259.16h20v12.28A27.46,27.46,0,0,1,412.88,258v21H407.6c-11.86,0-19,4.57-19,19.85Z"/><path d="M453.73,257.87c12.71,0,21.42,6,26.13,12.57V259.16H500v79.12H479.86V326.71c-4.71,6.85-13.71,12.85-26.28,12.85-20,0-36-16.42-36-41.13S433.59,257.87,453.73,257.87Zm5.14,17.57c-10.71,0-20.85,8-20.85,23S448.16,322,458.87,322c11,0,21-8.29,21-23.28S469.87,275.44,458.87,275.44Z"/></g></g></svg>