<svg xmlns="http://www.w3.org/2000/svg" viewBox="0 0 500 383.66"><defs><style>.cls-1{fill:#5e6bb2;}.cls-2{fill:#71b2e2;}</style></defs><g id="Layer_2" data-name="Layer 2"><g id="Layer_3" data-name="Layer 3"><path d="M36.13,321.39,21.71,346H.29l25.84-39.71L0,266.84H22.56L38.7,291.26l14.57-24.42H74.69l-26,39.41L75,346H52.41Z"/><path d="M128.53,347c-28.13,0-51.12-21.14-51.12-51.13s23-51,51.12-51c28.43,0,51,21.14,51,51S156.81,347,128.53,347Zm0-17.86c18,0,30.42-13,30.42-33.27s-12.42-33-30.42-33S98,275.55,98,295.83,110.4,329.1,128.53,329.1Z"/><path d="M236.93,265.55c20.28,0,36.13,15.85,36.13,40.56s-15.85,41.13-36.13,41.13a32.3,32.3,0,0,1-26.14-12.57v49h-20V266.84h20v11.42C215.51,271.55,224.65,265.55,236.93,265.55Zm-5.28,17.57c-10.72,0-20.86,8.28-20.86,23.28s10.14,23.27,20.86,23.27,21-8.56,21-23.56S242.5,283.12,231.65,283.12Z"/><path d="M318.62,347.24c-23,0-39.7-16-39.7-40.84s16.28-40.85,39.7-40.85c22.85,0,39,15.57,39,39.13a46.54,46.54,0,0,1-.57,7.71H299.2c1,11.72,9,18.28,19,18.28,8.57,0,13.28-4.28,15.86-9.56h21.56C351.33,335.67,338.19,347.24,318.62,347.24ZM299.34,299H336.9c-.28-10.43-8.57-17-18.85-17C308.48,282,300.91,288.11,299.34,299Z"/><path d="M388.6,346h-20V266.84h20v12.28a27.46,27.46,0,0,1,24.28-13.43v21H407.6c-11.86,0-19,4.57-19,19.85Z"/><path d="M453.73,265.55c12.71,0,21.42,6,26.13,12.57V266.84H500V346H479.86V334.39c-4.71,6.85-13.71,12.85-26.28,12.85-20,0-36-16.42-36-41.13S433.59,265.55,453.73,265.55Zm5.14,17.57c-10.71,0-20.85,8-20.85,23s10.14,23.56,20.85,23.56c11,0,21-8.28,21-23.27S469.87,283.12,458.87,283.12Z"/><path class="cls-1" d="M340.92,141.86H262.57a7.82,7.82,0,0,0-4.95,3.81l-24,44.15a3.74,3.74,0,0,0,2.31,5.38c2.42.69,4.89,1.27,7.39,1.76a6.44,6.44,0,0,1,5.07,5.39l1.3,8.65a6.51,6.51,0,0,0,6.44,5.54h9.06a6.5,6.5,0,0,0,6.44-5.54l1.3-8.64A6.44,6.44,0,0,1,278,197a89.78,89.78,0,0,0,12-3.19,6.44,6.44,0,0,1,7.06,2.16l5.41,6.79a6.53,6.53,0,0,0,8.36,1.59l7.85-4.53a6.53,6.53,0,0,0,2.8-8l-3.19-8.11a6.43,6.43,0,0,1,1.68-7.2,89.15,89.15,0,0,0,8.8-8.8A6.43,6.43,0,0,1,336,166l8.1,3.19a6.53,6.53,0,0,0,8-2.8l4.53-7.85a6.51,6.51,0,0,0-1.59-8.35l-5-4.71A13.3,13.3,0,0,0,340.92,141.86Z"/><path class="cls-1" d="M350,71.2a13.3,13.3,0,0,1-9.11,3.6H261.57a7.93,7.93,0,0,1-6.79-4.12L231.64,27.34A3.74,3.74,0,0,1,233.86,22a91.74,91.74,0,0,1,9.37-2.37,6.44,6.44,0,0,0,5.12-5.39l1.3-8.65A6.51,6.51,0,0,1,256.09.06h9.06a6.5,6.5,0,0,1,6.44,5.55l1.3,8.63a6.41,6.41,0,0,0,5.07,5.4,91.31,91.31,0,0,1,12,3.19,6.43,6.43,0,0,0,7.06-2.15l5.41-6.8a6.53,6.53,0,0,1,8.36-1.58l7.85,4.53a6.53,6.53,0,0,1,2.8,8L318.28,33a6.42,6.42,0,0,0,1.68,7.2,90.24,90.24,0,0,1,8.8,8.8,6.43,6.43,0,0,0,7.2,1.68l8.1-3.19a6.55,6.55,0,0,1,8,2.81l4.53,7.85A6.52,6.52,0,0,1,355,66.46Z"/><path class="cls-1" d="M244.14,139.65,201.19,214a4.71,4.71,0,0,1-8.17,0l-21.47-37.18a4.72,4.72,0,0,1,1.73-6.45l64.42-37.2A4.72,4.72,0,0,1,244.14,139.65Z"/><path class="cls-2" d="M195.11,76,240.25,102a7.12,7.12,0,0,1,0,12.33l-87,50.25a7.12,7.12,0,0,1-9.72-9.72l24.37-42.23a9,9,0,0,0,0-8.94L143.5,61.52a7.12,7.12,0,0,1,9.72-9.73Z"/><path class="cls-1" d="M244.15,76.74a4.72,4.72,0,0,1-6.45,6.45l-40-23.09L173.28,46a4.71,4.71,0,0,1-1.73-6.44L193,2.36a4.71,4.71,0,0,1,8.17,0l29.17,50.52Z"/><path d="M280.44,91.18H290l15.17,35.9H294.54l-2.6-6.37H278.2l-2.55,6.37H265.26ZM289.09,113l-4-10.13-4,10.13Z"/><path d="M308.59,91.43h15.28c9,0,14.82,4.64,14.82,12.53v.1c0,8.4-6.47,12.83-15.33,12.83h-4.89v10.19h-9.88Zm14.57,17.72c3.51,0,5.65-1.83,5.65-4.63v-.1c0-3.06-2.14-4.69-5.7-4.69h-4.64v9.42Z"/><path d="M343.06,91.43H353v35.65h-9.93Z"/></g></g></svg>