<svg xmlns="http://www.w3.org/2000/svg" viewBox="0 0 496.42 500"><defs><style>.cls-1{fill:#5e6bb2;}.cls-2{fill:#71b2e2;}</style></defs><g id="Layer_2" data-name="Layer 2"><g id="Layer_1-2" data-name="Layer 1"><path class="cls-1" d="M458.15,327.56H277.24a18,18,0,0,0-11.44,8.79L210.3,438.3a8.63,8.63,0,0,0,5.33,12.43c5.58,1.58,11.29,2.93,17.06,4a14.83,14.83,0,0,1,11.7,12.46l3,19.95A15,15,0,0,0,262.28,500h20.91a15,15,0,0,0,14.88-12.81l3-19.93a14.87,14.87,0,0,1,11.72-12.48,205.94,205.94,0,0,0,27.76-7.35,14.9,14.9,0,0,1,16.32,5l12.49,15.69a15,15,0,0,0,19.28,3.67l18.13-10.46a15.09,15.09,0,0,0,6.48-18.55L405.87,424a14.87,14.87,0,0,1,3.87-16.64,205.14,205.14,0,0,0,20.32-20.32,14.89,14.89,0,0,1,16.64-3.88l18.7,7.37A15.08,15.08,0,0,0,484,384.1L494.41,366a15,15,0,0,0-3.67-19.28l-11.62-10.86A30.75,30.75,0,0,0,458.15,327.56Z"/><path class="cls-1" d="M479.08,164.4a30.72,30.72,0,0,1-21,8.32H274.93a18.36,18.36,0,0,1-15.69-9.52L205.83,63.12a8.63,8.63,0,0,1,5.1-12.28,208.54,208.54,0,0,1,21.66-5.46,14.88,14.88,0,0,0,11.8-12.46l3-20A15,15,0,0,1,262.28.15h20.91A15,15,0,0,1,298.07,13l3,19.93a14.85,14.85,0,0,0,11.72,12.46,209,209,0,0,1,27.76,7.37,14.89,14.89,0,0,0,16.32-5l12.49-15.7a15,15,0,0,1,19.28-3.65l18.13,10.45a15.09,15.09,0,0,1,6.48,18.55l-7.37,18.71a14.83,14.83,0,0,0,3.87,16.62,208.42,208.42,0,0,1,20.32,20.32,14.82,14.82,0,0,0,16.64,3.87l18.7-7.35A15.08,15.08,0,0,1,484,116.05l10.46,18.12a15,15,0,0,1-3.67,19.29Z"/><path class="cls-1" d="M234.69,322.45,135.51,494.2a10.9,10.9,0,0,1-18.87,0L67.08,408.34a10.89,10.89,0,0,1,4-14.88l148.75-85.89C229.46,302,240.27,312.8,234.69,322.45Z"/><path class="cls-2" d="M121.47,175.41,225.7,235.58a16.44,16.44,0,0,1,0,28.47l-200.95,116C10.19,388.5-6.11,372.2,2.3,357.63l56.28-97.49a20.74,20.74,0,0,0,0-20.65L2.3,142.05c-8.41-14.57,7.89-30.87,22.46-22.46Z"/><path class="cls-1" d="M234.69,177.2c5.58,9.66-5.22,20.46-14.88,14.89l-92.37-53.32L71.06,106.19a10.9,10.9,0,0,1-4-14.88L116.64,5.45a10.89,10.89,0,0,1,18.87,0L202.87,122.1Z"/><path d="M318.49,210.53h22l35,82.89H351.06l-6-14.7H313.32l-5.88,14.7h-24Zm20,50.44-9.17-23.4L320,261Z"/><path d="M383.51,211.12h35.27c20.81,0,34.21,10.7,34.21,28.92v.24c0,19.4-14.93,29.63-35.39,29.63H406.31v23.51h-22.8ZM417.13,252c8.11,0,13.05-4.24,13.05-10.7v-.24c0-7-4.94-10.81-13.17-10.81h-10.7V252Z"/><path d="M463.1,211.12H486v82.3H463.1Z"/></g></g></svg>