<svg xmlns="http://www.w3.org/2000/svg" viewBox="0 0 500 375.87"><defs><style>.cls-1{fill:#5e6bb2;}.cls-2{fill:#71b2e2;}</style></defs><g id="Layer_2" data-name="Layer 2"><g id="Layer_3" data-name="Layer 3"><path d="M36.13,313.61,21.71,338.17H.29l25.84-39.7L0,259.05H22.56L38.7,283.47l14.57-24.42H74.69l-26,39.42L75,338.17H52.41Z"/><path d="M128.53,339.17C100.4,339.17,77.41,318,77.41,288s23-51,51.12-51c28.43,0,51,21.13,51,51S156.81,339.17,128.53,339.17Zm0-17.85c18,0,30.42-13,30.42-33.28s-12.42-33-30.42-33S98,267.76,98,288,110.4,321.32,128.53,321.32Z"/><path d="M236.93,257.77c20.28,0,36.13,15.85,36.13,40.56s-15.85,41.13-36.13,41.13a32.3,32.3,0,0,1-26.14-12.57v49h-20V259.05h20v11.43C215.51,263.77,224.65,257.77,236.93,257.77Zm-5.28,17.56c-10.72,0-20.86,8.29-20.86,23.28s10.14,23.28,20.86,23.28,21-8.57,21-23.56S242.5,275.33,231.65,275.33Z"/><path d="M318.62,339.46c-23,0-39.7-16-39.7-40.85s16.28-40.84,39.7-40.84c22.85,0,39,15.56,39,39.13a46.54,46.54,0,0,1-.57,7.71H299.2c1,11.71,9,18.28,19,18.28,8.57,0,13.28-4.28,15.86-9.57h21.56C351.33,327.89,338.19,339.46,318.62,339.46Zm-19.28-48.27H336.9c-.28-10.43-8.57-17-18.85-17C308.48,274.19,300.91,280.33,299.34,291.19Z"/><path d="M388.6,338.17h-20V259.05h20v12.28a27.45,27.45,0,0,1,24.28-13.42v21H407.6c-11.86,0-19,4.57-19,19.85Z"/><path d="M453.73,257.77c12.71,0,21.42,6,26.13,12.57V259.05H500v79.12H479.86V326.6c-4.71,6.86-13.71,12.86-26.28,12.86-20,0-36-16.43-36-41.13S433.59,257.77,453.73,257.77Zm5.14,17.56c-10.71,0-20.85,8-20.85,23s10.14,23.56,20.85,23.56c11,0,21-8.28,21-23.28S469.87,275.33,458.87,275.33Z"/><path class="cls-1" d="M339.07,141.86H260.73a7.81,7.81,0,0,0-5,3.81l-24,44.15a3.73,3.73,0,0,0,2.31,5.38c2.41.69,4.88,1.27,7.38,1.76a6.42,6.42,0,0,1,5.07,5.39l1.3,8.65a6.51,6.51,0,0,0,6.44,5.54h9.06a6.52,6.52,0,0,0,6.45-5.54l1.29-8.64a6.45,6.45,0,0,1,5.08-5.4,89.24,89.24,0,0,0,12-3.19,6.46,6.46,0,0,1,7.07,2.16l5.41,6.79a6.52,6.52,0,0,0,8.35,1.59l7.85-4.53a6.52,6.52,0,0,0,2.8-8l-3.19-8.11a6.43,6.43,0,0,1,1.68-7.2,89.15,89.15,0,0,0,8.8-8.8,6.44,6.44,0,0,1,7.21-1.68l8.1,3.19a6.52,6.52,0,0,0,8-2.8l4.53-7.85a6.51,6.51,0,0,0-1.59-8.35l-5-4.71A13.33,13.33,0,0,0,339.07,141.86Z"/><path class="cls-1" d="M348.14,71.2A13.28,13.28,0,0,1,339,74.8H259.72a7.94,7.94,0,0,1-6.79-4.12L229.8,27.34A3.74,3.74,0,0,1,232,22a91.27,91.27,0,0,1,9.38-2.37,6.43,6.43,0,0,0,5.11-5.39l1.3-8.65A6.51,6.51,0,0,1,254.24.06h9.06a6.52,6.52,0,0,1,6.45,5.55L271,14.24a6.42,6.42,0,0,0,5.08,5.4,90.75,90.75,0,0,1,12,3.19,6.45,6.45,0,0,0,7.07-2.15l5.41-6.8A6.51,6.51,0,0,1,309,12.3l7.85,4.53a6.52,6.52,0,0,1,2.8,8L316.43,33a6.42,6.42,0,0,0,1.68,7.2,90.24,90.24,0,0,1,8.8,8.8,6.44,6.44,0,0,0,7.21,1.68l8.1-3.19a6.54,6.54,0,0,1,8,2.81l4.53,7.85a6.52,6.52,0,0,1-1.59,8.35Z"/><path class="cls-1" d="M242.3,139.65l-43,74.38a4.71,4.71,0,0,1-8.17,0l-21.46-37.18a4.72,4.72,0,0,1,1.72-6.45l64.42-37.2A4.72,4.72,0,0,1,242.3,139.65Z"/><path class="cls-2" d="M193.26,76,238.4,102a7.12,7.12,0,0,1,0,12.33l-87,50.25a7.12,7.12,0,0,1-9.73-9.72L166,112.66a9,9,0,0,0,0-8.94l-24.38-42.2a7.12,7.12,0,0,1,9.73-9.73Z"/><path class="cls-1" d="M242.3,76.74a4.72,4.72,0,0,1-6.45,6.45l-40-23.09L171.43,46a4.71,4.71,0,0,1-1.72-6.44L191.17,2.36a4.71,4.71,0,0,1,8.17,0l29.18,50.52Z"/><path d="M270.14,100.09H259.45V91.43h31.26v8.66H280v27h-9.88Z"/><path d="M295,91.43h15.27c9,0,14.82,4.64,14.82,12.53v.1c0,8.4-6.47,12.83-15.33,12.83h-4.89v10.19H295Zm14.56,17.72c3.51,0,5.65-1.83,5.65-4.63v-.1c0-3.06-2.14-4.69-5.7-4.69h-4.64v9.42Z"/><path d="M326.6,121.78l5.5-6.57a18.39,18.39,0,0,0,11.56,4.28c2.65,0,4.07-.92,4.07-2.44v-.11c0-1.47-1.17-2.29-6-3.41-7.59-1.73-13.45-3.87-13.45-11.2v-.1c0-6.62,5.25-11.41,13.8-11.41,6.06,0,10.8,1.63,14.67,4.74l-4.94,7a17.88,17.88,0,0,0-10-3.51c-2.39,0-3.57,1-3.57,2.29v.1c0,1.63,1.23,2.35,6.17,3.47,8.19,1.78,13.28,4.43,13.28,11.1v.1c0,7.28-5.75,11.61-14.4,11.61A24.92,24.92,0,0,1,326.6,121.78Z"/></g></g></svg>