<svg xmlns="http://www.w3.org/2000/svg" viewBox="0 0 500 375.94"><defs><style>.cls-1{fill:#5e6bb2;}.cls-2{fill:#71b2e2;}</style></defs><g id="Layer_2" data-name="Layer 2"><g id="Layer_3" data-name="Layer 3"><path d="M36.13,313.68,21.71,338.24H.29l25.84-39.7L0,259.12H22.56L38.7,283.55l14.57-24.43H74.69l-26,39.42L75,338.24H52.41Z"/><path d="M128.53,339.24c-28.13,0-51.12-21.13-51.12-51.12s23-51,51.12-51c28.43,0,51,21.14,51,51S156.81,339.24,128.53,339.24Zm0-17.85c18,0,30.42-13,30.42-33.27s-12.42-33-30.42-33S98,267.83,98,288.12,110.4,321.39,128.53,321.39Z"/><path d="M236.93,257.84c20.28,0,36.13,15.85,36.13,40.56s-15.85,41.13-36.13,41.13A32.3,32.3,0,0,1,210.79,327v49h-20V259.12h20v11.43C215.51,263.84,224.65,257.84,236.93,257.84Zm-5.28,17.56c-10.72,0-20.86,8.29-20.86,23.28S220.93,322,231.65,322s21-8.57,21-23.56S242.5,275.4,231.65,275.4Z"/><path d="M318.62,339.53c-23,0-39.7-16-39.7-40.85s16.28-40.84,39.7-40.84c22.85,0,39,15.56,39,39.13a46.54,46.54,0,0,1-.57,7.71H299.2c1,11.71,9,18.28,19,18.28,8.57,0,13.28-4.28,15.86-9.57h21.56C351.33,328,338.19,339.53,318.62,339.53Zm-19.28-48.27H336.9c-.28-10.43-8.57-17-18.85-17C308.48,274.26,300.91,280.4,299.34,291.26Z"/><path d="M388.6,338.24h-20V259.12h20V271.4A27.45,27.45,0,0,1,412.88,258v21H407.6c-11.86,0-19,4.58-19,19.85Z"/><path d="M453.73,257.84c12.71,0,21.42,6,26.13,12.57V259.12H500v79.12H479.86V326.67c-4.71,6.86-13.71,12.86-26.28,12.86-20,0-36-16.43-36-41.13S433.59,257.84,453.73,257.84Zm5.14,17.56c-10.71,0-20.85,8-20.85,23S448.16,322,458.87,322c11,0,21-8.28,21-23.28S469.87,275.4,458.87,275.4Z"/><path class="cls-1" d="M338.19,141.86H259.84a7.82,7.82,0,0,0-4.95,3.81l-24,44.15a3.74,3.74,0,0,0,2.31,5.38c2.42.69,4.89,1.27,7.39,1.76a6.44,6.44,0,0,1,5.07,5.39l1.3,8.65a6.5,6.5,0,0,0,6.44,5.54h9.06a6.51,6.51,0,0,0,6.44-5.54l1.3-8.64a6.44,6.44,0,0,1,5.07-5.4,89.24,89.24,0,0,0,12-3.19,6.45,6.45,0,0,1,7.07,2.16l5.41,6.79a6.52,6.52,0,0,0,8.35,1.59l7.85-4.53a6.53,6.53,0,0,0,2.81-8l-3.19-8.11a6.43,6.43,0,0,1,1.68-7.2,89.15,89.15,0,0,0,8.8-8.8,6.43,6.43,0,0,1,7.2-1.68l8.1,3.19a6.54,6.54,0,0,0,8-2.8l4.52-7.85a6.5,6.5,0,0,0-1.58-8.35l-5-4.71A13.3,13.3,0,0,0,338.19,141.86Z"/><path class="cls-1" d="M347.25,71.2a13.26,13.26,0,0,1-9.1,3.6H258.84a7.93,7.93,0,0,1-6.79-4.12L228.91,27.34A3.74,3.74,0,0,1,231.12,22a92.59,92.59,0,0,1,9.38-2.37,6.44,6.44,0,0,0,5.12-5.39l1.3-8.65A6.5,6.5,0,0,1,253.36.06h9.06a6.51,6.51,0,0,1,6.44,5.55l1.3,8.63a6.41,6.41,0,0,0,5.07,5.4,90.75,90.75,0,0,1,12,3.19,6.45,6.45,0,0,0,7.07-2.15l5.41-6.8a6.52,6.52,0,0,1,8.35-1.58l7.85,4.53a6.53,6.53,0,0,1,2.81,8L315.55,33a6.42,6.42,0,0,0,1.68,7.2A90.24,90.24,0,0,1,326,49a6.43,6.43,0,0,0,7.2,1.68l8.1-3.19a6.55,6.55,0,0,1,8,2.81l4.52,7.85a6.5,6.5,0,0,1-1.58,8.35Z"/><path class="cls-1" d="M241.41,139.65,198.46,214a4.71,4.71,0,0,1-8.17,0l-21.47-37.18a4.72,4.72,0,0,1,1.73-6.45L235,133.2A4.72,4.72,0,0,1,241.41,139.65Z"/><path class="cls-2" d="M192.38,76,237.52,102a7.12,7.12,0,0,1,0,12.33l-87,50.25a7.12,7.12,0,0,1-9.72-9.72l24.37-42.23a9,9,0,0,0,0-8.94l-24.37-42.2a7.12,7.12,0,0,1,9.72-9.73Z"/><path class="cls-1" d="M241.42,76.74A4.72,4.72,0,0,1,235,83.19L195,60.1,170.55,46a4.71,4.71,0,0,1-1.73-6.44L190.29,2.36a4.71,4.71,0,0,1,8.17,0l29.17,50.52Z"/><path d="M256.4,119.14l4.5-5.37a15,15,0,0,0,9.45,3.5c2.17,0,3.34-.75,3.34-2v-.08c0-1.21-1-1.88-4.92-2.79-6.2-1.42-11-3.17-11-9.16v-.09c0-5.41,4.29-9.33,11.28-9.33a18.37,18.37,0,0,1,12,3.88l-4,5.7a14.66,14.66,0,0,0-8.17-2.87c-2,0-2.91.83-2.91,1.87v.09c0,1.33,1,1.91,5,2.83,6.7,1.45,10.87,3.62,10.87,9.07v.09c0,6-4.71,9.49-11.79,9.49A20.37,20.37,0,0,1,256.4,119.14Z"/><path d="M284.18,117v-.09c0-4.66,3.54-7.07,8.83-7.07a17.22,17.22,0,0,1,5.41.87v-.37c0-2.34-1.45-3.67-4.49-3.67a15.9,15.9,0,0,0-6.21,1.25l-1.62-5.58a22.62,22.62,0,0,1,9.12-1.75c4,0,6.78,1,8.57,2.75s2.42,4,2.42,7.16v13h-7.83v-2.33a8.48,8.48,0,0,1-6.62,2.83C287.47,124,284.18,121.52,284.18,117Zm14.33-1.71v-1a8.38,8.38,0,0,0-3.09-.58c-2.29,0-3.62,1.12-3.62,2.79v.08a2.49,2.49,0,0,0,2.79,2.46A3.63,3.63,0,0,0,298.51,115.31Z"/><path d="M309.13,117v-.09c0-4.66,3.54-7.07,8.83-7.07a17.22,17.22,0,0,1,5.41.87v-.37c0-2.34-1.46-3.67-4.5-3.67a15.88,15.88,0,0,0-6.2,1.25L311,102.36a22.66,22.66,0,0,1,9.12-1.75c4,0,6.79,1,8.58,2.75s2.42,4,2.42,7.16v13h-7.83v-2.33a8.49,8.49,0,0,1-6.62,2.83C312.42,124,309.13,121.52,309.13,117Zm14.32-1.71v-1a8.33,8.33,0,0,0-3.08-.58c-2.29,0-3.62,1.12-3.62,2.79v.08c0,1.54,1.16,2.46,2.79,2.46A3.62,3.62,0,0,0,323.45,115.31Z"/><path d="M333.45,119.14l4.5-5.37a15,15,0,0,0,9.45,3.5c2.16,0,3.33-.75,3.33-2v-.08c0-1.21-1-1.88-4.91-2.79-6.21-1.42-11-3.17-11-9.16v-.09c0-5.41,4.29-9.33,11.29-9.33a18.34,18.34,0,0,1,12,3.88l-4,5.7a14.63,14.63,0,0,0-8.16-2.87c-2,0-2.91.83-2.91,1.87v.09c0,1.33,1,1.91,5,2.83,6.71,1.45,10.87,3.62,10.87,9.07v.09c0,6-4.7,9.49-11.78,9.49A20.33,20.33,0,0,1,333.45,119.14Z"/></g></g></svg>