<svg xmlns="http://www.w3.org/2000/svg" viewBox="0 0 500 498.81"><defs><style>.cls-1{fill:#5e6bb2;}.cls-2{fill:#71b2e2;}</style></defs><g id="Layer_2" data-name="Layer 2"><g id="Layer_1-2" data-name="Layer 1"><path class="cls-1" d="M457.06,326.78H276.59a18,18,0,0,0-11.42,8.77L209.8,437.26a8.61,8.61,0,0,0,5.32,12.4c5.57,1.57,11.26,2.92,17,4a14.8,14.8,0,0,1,11.67,12.43l3,19.9a15,15,0,0,0,14.84,12.78h20.87A15,15,0,0,0,297.37,486l3-19.88A14.85,14.85,0,0,1,312,453.7a205.74,205.74,0,0,0,27.7-7.33A14.84,14.84,0,0,1,356,451.32L368.47,467a15,15,0,0,0,19.24,3.66L405.8,460.2a15.06,15.06,0,0,0,6.46-18.51L404.9,423a14.85,14.85,0,0,1,3.87-16.59A205.31,205.31,0,0,0,429,386.16a14.84,14.84,0,0,1,16.6-3.86l18.66,7.35a15.05,15.05,0,0,0,18.5-6.46l10.44-18.09a15,15,0,0,0-3.66-19.23L478,335A30.6,30.6,0,0,0,457.06,326.78Z"/><path class="cls-1" d="M477.94,164a30.6,30.6,0,0,1-21,8.3H274.27a18.31,18.31,0,0,1-15.65-9.5L205.34,63a8.61,8.61,0,0,1,5.09-12.25A206.13,206.13,0,0,1,232,45.28a14.85,14.85,0,0,0,11.78-12.43l3-19.93A15,15,0,0,1,261.65.15h20.87a15,15,0,0,1,14.85,12.77l3,19.89A14.81,14.81,0,0,0,312,45.24a208.82,208.82,0,0,1,27.7,7.35,14.85,14.85,0,0,0,16.28-5L368.47,32a15,15,0,0,1,19.24-3.64L405.8,38.76a15.06,15.06,0,0,1,6.46,18.51L404.9,75.93a14.83,14.83,0,0,0,3.87,16.58A207.4,207.4,0,0,1,429,112.78a14.8,14.8,0,0,0,16.6,3.87l18.66-7.34a15.05,15.05,0,0,1,18.5,6.46l10.44,18.08a15,15,0,0,1-3.66,19.24Z"/><path class="cls-1" d="M234.13,321.69,135.19,493a10.88,10.88,0,0,1-18.83,0L66.92,407.37a10.87,10.87,0,0,1,4-14.85l148.39-85.68C228.92,301.28,239.7,312.06,234.13,321.69Z"/><path class="cls-2" d="M121.18,175l104,60a16.41,16.41,0,0,1,0,28.41L24.7,379.18c-14.53,8.39-30.8-7.87-22.41-22.4l56.15-97.25a20.72,20.72,0,0,0,0-20.61L2.3,141.71c-8.39-14.53,7.87-30.79,22.4-22.41Z"/><path class="cls-1" d="M234.14,176.78c5.56,9.63-5.22,20.41-14.85,14.85l-92.15-53.19-56.25-32.5a10.88,10.88,0,0,1-4-14.85L116.36,5.44a10.87,10.87,0,0,1,18.83,0l67.2,116.38Z"/><path d="M298.27,230.56H273.63V210.62h72v19.94H321v62.16H298.27Z"/><path d="M355.62,210.62H390.8c20.77,0,34.14,10.67,34.14,28.85v.24c0,19.35-14.9,29.56-35.31,29.56H378.37v23.45H355.62Zm33.54,40.82c8.1,0,13-4.23,13-10.68v-.23c0-7-4.92-10.79-13.13-10.79H378.37v21.7Z"/><path d="M428.34,280.53,441,265.39c8.1,6.46,17.13,9.86,26.63,9.86,6.1,0,9.38-2.11,9.38-5.63v-.24c0-3.4-2.7-5.28-13.84-7.86-17.48-4-31-8.91-31-25.8v-.23c0-15.25,12.08-26.28,31.78-26.28,14,0,24.87,3.76,33.78,10.91l-11.38,16.07c-7.5-5.28-15.71-8.09-23-8.09-5.51,0-8.21,2.34-8.21,5.27v.24c0,3.75,2.82,5.39,14.2,8,18.88,4.1,30.61,10.2,30.61,25.56v.24c0,16.77-13.25,26.74-33.19,26.74C452.26,294.13,438.42,289.56,428.34,280.53Z"/></g></g></svg>