<svg xmlns="http://www.w3.org/2000/svg" viewBox="0 0 500 494.12"><defs><style>.cls-1{fill:#5e6bb2;}.cls-2{fill:#71b2e2;}</style></defs><g id="Layer_2" data-name="Layer 2"><g id="Layer_1-2" data-name="Layer 1"><path class="cls-1" d="M452.76,323.71H274a17.77,17.77,0,0,0-11.3,8.69L207.83,433.15a8.52,8.52,0,0,0,5.27,12.28c5.51,1.56,11.15,2.89,16.85,4a14.67,14.67,0,0,1,11.57,12.31l3,19.72a14.86,14.86,0,0,0,14.7,12.66h20.67a14.88,14.88,0,0,0,14.71-12.66l2.95-19.7a14.69,14.69,0,0,1,11.58-12.33,204,204,0,0,0,27.43-7.26,14.7,14.7,0,0,1,16.13,4.9L365,462.58a14.86,14.86,0,0,0,19.05,3.62L402,455.87a14.92,14.92,0,0,0,6.4-18.33l-7.29-18.49a14.71,14.71,0,0,1,3.84-16.44A203.53,203.53,0,0,0,425,382.53a14.69,14.69,0,0,1,16.44-3.83L459.93,386a14.89,14.89,0,0,0,18.33-6.4l10.34-17.91A14.87,14.87,0,0,0,485,342.61l-11.48-10.73A30.4,30.4,0,0,0,452.76,323.71Z"/><path class="cls-1" d="M473.44,162.47a30.34,30.34,0,0,1-20.77,8.22h-181a18.12,18.12,0,0,1-15.5-9.41l-52.78-98.9a8.53,8.53,0,0,1,5-12.14,204.17,204.17,0,0,1,21.4-5.39,14.72,14.72,0,0,0,11.67-12.31l3-19.74A14.85,14.85,0,0,1,259.19.14h20.67A14.87,14.87,0,0,1,294.57,12.8l2.95,19.7A14.65,14.65,0,0,0,309.1,44.81a205.61,205.61,0,0,1,27.43,7.29,14.72,14.72,0,0,0,16.13-4.91L365,31.67a14.88,14.88,0,0,1,19.05-3.61L402,38.4a14.92,14.92,0,0,1,6.4,18.33l-7.29,18.48a14.69,14.69,0,0,0,3.84,16.43A206.85,206.85,0,0,1,425,111.72a14.65,14.65,0,0,0,16.44,3.83l18.48-7.27a14.91,14.91,0,0,1,18.33,6.4l10.34,17.91A14.87,14.87,0,0,1,485,151.65Z"/><path class="cls-1" d="M231.93,318.66l-98,169.73a10.77,10.77,0,0,1-18.65,0l-49-84.85a10.76,10.76,0,0,1,3.94-14.71l147-84.88C226.76,298.44,237.44,309.12,231.93,318.66Z"/><path class="cls-2" d="M120,173.35l103,59.46A16.25,16.25,0,0,1,223,261L24.46,375.62c-14.39,8.31-30.5-7.8-22.19-22.19l55.62-96.34a20.56,20.56,0,0,0,0-20.42L2.28,140.37C-6,126,10.07,109.87,24.46,118.18Z"/><path class="cls-1" d="M231.94,175.12c5.5,9.54-5.17,20.22-14.71,14.71l-91.29-52.69-55.72-32.2a10.76,10.76,0,0,1-3.93-14.7l49-84.86a10.77,10.77,0,0,1,18.65,0l66.57,115.28Z"/><path d="M266.14,271.86l10.26-12.25c6.56,5.22,13.87,8,21.57,8,4.94,0,7.6-1.71,7.6-4.56v-.19c0-2.76-2.18-4.28-11.21-6.37-14.16-3.23-25.09-7.22-25.09-20.9v-.19c0-12.35,9.79-21.29,25.75-21.29,11.31,0,20.15,3,27.37,8.84l-9.22,13c-6.08-4.28-12.73-6.56-18.62-6.56-4.47,0-6.65,1.9-6.65,4.28v.19c0,3,2.28,4.37,11.49,6.46,15.3,3.32,24.8,8.27,24.8,20.71v.19c0,13.59-10.73,21.67-26.89,21.67C285.52,282.89,274.31,279.18,266.14,271.86Z"/><path d="M329.52,267v-.19c0-10.64,8.08-16.15,20.15-16.15a39.6,39.6,0,0,1,12.35,2v-.85c0-5.33-3.33-8.37-10.26-8.37a36.29,36.29,0,0,0-14.16,2.85l-3.71-12.73a51.78,51.78,0,0,1,20.81-4c9.22,0,15.49,2.19,19.58,6.27,3.89,3.8,5.51,9.12,5.51,16.35v29.55H361.92v-5.32a19.39,19.39,0,0,1-15.1,6.46C337,282.89,329.52,277.28,329.52,267Zm32.69-3.9v-2.37a18.93,18.93,0,0,0-7-1.33c-5.23,0-8.27,2.56-8.27,6.36V266c0,3.52,2.66,5.61,6.37,5.61C358.5,271.58,362.21,268.25,362.21,263.12Z"/><path d="M386.45,267v-.19c0-10.64,8.07-16.15,20.14-16.15a39.55,39.55,0,0,1,12.35,2v-.85c0-5.33-3.32-8.37-10.26-8.37a36.29,36.29,0,0,0-14.16,2.85l-3.7-12.73a51.71,51.71,0,0,1,20.81-4c9.21,0,15.48,2.19,19.57,6.27,3.89,3.8,5.51,9.12,5.51,16.35v29.55H418.85v-5.32a19.41,19.41,0,0,1-15.11,6.46C394,282.89,386.45,277.28,386.45,267Zm32.68-3.9v-2.37a18.89,18.89,0,0,0-7-1.33c-5.23,0-8.27,2.56-8.27,6.36V266c0,3.52,2.66,5.61,6.37,5.61C415.43,271.58,419.13,268.25,419.13,263.12Z"/><path d="M441.94,271.86l10.27-12.25c6.55,5.22,13.87,8,21.56,8,5,0,7.61-1.71,7.61-4.56v-.19c0-2.76-2.19-4.28-11.22-6.37-14.15-3.23-25.08-7.22-25.08-20.9v-.19c0-12.35,9.79-21.29,25.75-21.29,11.31,0,20.14,3,27.36,8.84L489,236c-6.08-4.28-12.74-6.56-18.63-6.56-4.46,0-6.65,1.9-6.65,4.28v.19c0,3,2.28,4.37,11.5,6.46,15.3,3.32,24.8,8.27,24.8,20.71v.19c0,13.59-10.74,21.67-26.89,21.67C461.33,282.89,450.11,279.18,441.94,271.86Z"/></g></g></svg>