<svg xmlns="http://www.w3.org/2000/svg" viewBox="0 0 500 142.47"><defs><style>.cls-1{fill:#5e6bb2;}.cls-2{fill:#71b2e2;}</style></defs><g id="Layer_2" data-name="Layer 2"><g id="Layer_1-2" data-name="Layer 1"><path class="cls-1" d="M148.93,74.24v-6A4.27,4.27,0,0,0,145.28,64l-5.68-.86a4.21,4.21,0,0,1-3.55-3.33,59.33,59.33,0,0,0-2.1-7.91,4.23,4.23,0,0,1,1.41-4.65l4.48-3.56a4.29,4.29,0,0,0,1-5.5l-3-5.16a4.28,4.28,0,0,0-5.28-1.85l-5.34,2.1a4.22,4.22,0,0,1-4.73-1.11,60.85,60.85,0,0,0-5.79-5.79,4.21,4.21,0,0,1-1.11-4.73l2.1-5.34a4.29,4.29,0,0,0-1.85-5.28l-5.16-3a4.29,4.29,0,0,0-5.5,1l-3.56,4.48A4.24,4.24,0,0,1,97,15a59.33,59.33,0,0,0-7.91-2.1,4.21,4.21,0,0,1-3.33-3.55l-.86-5.68A4.28,4.28,0,0,0,80.69,0h-6a4.29,4.29,0,0,0-4.24,3.65l-.85,5.69a4.26,4.26,0,0,1-3.36,3.55,57.41,57.41,0,0,0-6.17,1.56A2.45,2.45,0,0,0,58.65,18L73.87,46.5a5.21,5.21,0,0,0,4.47,2.72,21.66,21.66,0,0,1,10.07,2.91,22,22,0,0,1-8.63,41.06,5.2,5.2,0,0,0-4,2.65L59.92,124.89a2.46,2.46,0,0,0,1.52,3.54q2.4.67,4.86,1.16a4.22,4.22,0,0,1,3.34,3.55l.85,5.68a4.29,4.29,0,0,0,4.24,3.65h6a4.28,4.28,0,0,0,4.24-3.65l.86-5.68a4.22,4.22,0,0,1,3.33-3.55,57.85,57.85,0,0,0,7.91-2.1,4.24,4.24,0,0,1,4.65,1.42l3.56,4.47a4.29,4.29,0,0,0,5.5,1l5.16-3a4.29,4.29,0,0,0,1.85-5.28l-2.1-5.33a4.22,4.22,0,0,1,1.11-4.74,60.85,60.85,0,0,0,5.79-5.79,4.22,4.22,0,0,1,4.73-1.11l5.34,2.1a4.29,4.29,0,0,0,5.28-1.84l3-5.17a4.28,4.28,0,0,0-1-5.49l-4.48-3.57A4.22,4.22,0,0,1,134,90.58a59.87,59.87,0,0,0,2.1-7.92,4.2,4.2,0,0,1,3.55-3.33l5.68-.85A4.29,4.29,0,0,0,148.93,74.24Z"/><path class="cls-1" d="M66.87,91.88,38.61,140.82a3.1,3.1,0,0,1-5.37,0L19.11,116.35a3.11,3.11,0,0,1,1.14-4.24L62.63,87.64A3.1,3.1,0,0,1,66.87,91.88Z"/><path class="cls-2" d="M34.61,50l29.7,17.15a4.68,4.68,0,0,1,0,8.11L7.05,108.3a4.69,4.69,0,0,1-6.4-6.4l16-27.77a5.9,5.9,0,0,0,0-5.89L.66,40.47a4.68,4.68,0,0,1,6.39-6.39Z"/><path class="cls-1" d="M66.87,50.49a3.1,3.1,0,0,1-4.24,4.24L36.31,39.54,20.25,30.26A3.11,3.11,0,0,1,19.11,26L33.24,1.55a3.1,3.1,0,0,1,5.37,0l19.2,33.24Z"/><path d="M194.8,89.31l-9.49,16.16H171.22l17-26.12L171,53.41h14.85l10.61,16.07,9.59-16.07h14.09l-17.1,25.94,17.29,26.12H205.52Z"/><path d="M255.6,106.13c-18.51,0-33.64-13.91-33.64-33.64s15.13-33.55,33.64-33.55c18.7,0,33.54,13.91,33.54,33.55S274.2,106.13,255.6,106.13Zm0-11.75c11.84,0,20-8.55,20-21.89s-8.17-21.71-20-21.71-20.11,8.36-20.11,21.71S243.67,94.38,255.6,94.38Z"/><path d="M326.92,52.57c13.34,0,23.77,10.43,23.77,26.68s-10.43,27.06-23.77,27.06a21.28,21.28,0,0,1-17.2-8.26v32.22H296.57V53.41h13.15v7.52A20.79,20.79,0,0,1,326.92,52.57Zm-3.48,11.55c-7.05,0-13.72,5.46-13.72,15.32s6.67,15.32,13.72,15.32,13.81-5.64,13.81-15.51S330.58,64.12,323.44,64.12Z"/><path d="M380.66,106.31c-15.12,0-26.12-10.52-26.12-26.87s10.71-26.87,26.12-26.87c15,0,25.66,10.24,25.66,25.74a31,31,0,0,1-.38,5.08H367.89c.65,7.7,5.92,12,12.49,12,5.64,0,8.74-2.81,10.43-6.29H405C402.18,98.7,393.54,106.31,380.66,106.31ZM368,74.55h24.71c-.19-6.86-5.64-11.18-12.4-11.18C374,63.37,369,67.41,368,74.55Z"/><path d="M426.71,105.47H413.55V53.41h13.16v8.08a18.07,18.07,0,0,1,16-8.83V66.47H439.2c-7.79,0-12.49,3-12.49,13.06Z"/><path d="M469.56,52.57c8.36,0,14.09,3.94,17.19,8.27V53.41H500v52.06H486.75V97.86c-3.1,4.51-9,8.45-17.29,8.45-13.15,0-23.68-10.8-23.68-27.06S456.31,52.57,469.56,52.57Zm3.38,11.55c-7.05,0-13.72,5.27-13.72,15.13s6.67,15.51,13.72,15.51c7.23,0,13.81-5.45,13.81-15.32S480.17,64.12,472.94,64.12Z"/></g></g></svg>