<svg xmlns="http://www.w3.org/2000/svg" width="500" height="478.32" viewBox="0 0 500 478.32"><g id="Layer_2" data-name="Layer 2"><g id="Layer_1-2" data-name="Layer 1"><path d="M500,249.24v-20A14.39,14.39,0,0,0,487.74,215l-19.06-2.86a14.2,14.2,0,0,1-11.93-11.2,199,199,0,0,0-7-26.56,14.19,14.19,0,0,1,4.74-15.61l15-11.95a14.39,14.39,0,0,0,3.5-18.46L463,111a14.39,14.39,0,0,0-17.73-6.2l-17.9,7a14.19,14.19,0,0,1-15.9-3.71A200.4,200.4,0,0,0,392,88.71a14.19,14.19,0,0,1-3.71-15.9l7-17.9a14.39,14.39,0,0,0-6.2-17.73l-17.33-10a14.39,14.39,0,0,0-18.46,3.5l-11.95,15a14.19,14.19,0,0,1-15.61,4.74,199,199,0,0,0-26.56-7A14.2,14.2,0,0,1,288,31.46l-2.86-19.07A14.39,14.39,0,0,0,270.92.14h-20a14.39,14.39,0,0,0-14.23,12.25l-2.87,19.1a14.24,14.24,0,0,1-11.29,11.93,199.74,199.74,0,0,0-20.71,5.22,8.24,8.24,0,0,0-4.89,11.75L248,156.12a17.57,17.57,0,0,0,15,9.12A73,73,0,0,1,296.84,175c25.45,14.6,40.27,43.61,36.73,72.74a74.06,74.06,0,0,1-65.71,65.13,17.42,17.42,0,0,0-13.58,8.89l-53.1,97.53a8.25,8.25,0,0,0,5.1,11.88q8,2.28,16.32,3.88A14.22,14.22,0,0,1,233.81,447l2.86,19.08a14.39,14.39,0,0,0,14.23,12.25h20a14.39,14.39,0,0,0,14.23-12.25L288,447a14.2,14.2,0,0,1,11.2-11.93,199,199,0,0,0,26.56-7,14.19,14.19,0,0,1,15.61,4.74l11.95,15a14.4,14.4,0,0,0,18.46,3.49l17.33-10a14.39,14.39,0,0,0,6.2-17.73l-7-17.9a14.19,14.19,0,0,1,3.71-15.9,200.4,200.4,0,0,0,19.44-19.44,14.19,14.19,0,0,1,15.9-3.71l17.9,7a14.39,14.39,0,0,0,17.73-6.2l10-17.33a14.39,14.39,0,0,0-3.5-18.46l-15-11.95a14.19,14.19,0,0,1-4.74-15.61,199,199,0,0,0,7-26.56,14.21,14.21,0,0,1,11.93-11.2l19.06-2.86A14.39,14.39,0,0,0,500,249.24Z"/><path d="M224.52,308.47,129.64,472.78a10.44,10.44,0,0,1-18.06,0L64.17,390.64A10.43,10.43,0,0,1,68,376.4l142.3-82.17C219.51,288.9,229.85,299.24,224.52,308.47Z"/><path d="M116.2,167.81l99.71,57.56a15.72,15.72,0,0,1,0,27.24l-192.23,111c-13.93,8-29.53-7.55-21.48-21.48L56,248.87a19.86,19.86,0,0,0,0-19.76L2.2,135.89c-8-13.93,7.55-29.53,21.48-21.49Z"/><path d="M224.52,169.52c5.33,9.24-5,19.57-14.24,14.24l-88.36-51L68,101.59a10.43,10.43,0,0,1-3.81-14.24L111.58,5.21a10.43,10.43,0,0,1,18.06,0l64.44,111.6Z"/></g></g></svg>